<svg version="1.0" xmlns="http://www.w3.org/2000/svg"
    width="1928.000000pt" height="652.000000pt" viewBox="0 0 1928.000000 652.000000"
    preserveAspectRatio="xMidYMid meet">

    <g transform="translate(0.000000,652.000000) scale(0.100000,-0.100000)"
        fill="#fff" stroke="none">
        <path fill="#ff3a3c"
            d="M1155 6003 c-70 -11 -176 -48 -260 -91 -71 -37 -109 -66 -181 -137
-107 -107 -159 -197 -200 -351 -26 -97 -27 -106 -33 -519 -4 -231 -6 -1144 -6
-2030 0 -1503 1 -1615 18 -1682 80 -325 311 -546 667 -638 90 -24 131 -28 290
-32 328 -9 433 24 960 305 642 341 1204 634 1240 647 46 16 177 22 230 10 48
-10 97 -36 382 -197 262 -149 340 -204 399 -282 82 -109 109 -197 109 -361 0
-93 2 -105 21 -118 57 -40 308 81 440 213 156 156 252 354 295 615 18 102 19
178 18 1005 0 977 0 958 -60 1138 -39 116 -89 198 -178 290 -88 91 -171 148
-426 294 -91 52 -223 129 -295 170 -150 87 -361 208 -700 403 -132 76 -314
181 -405 233 -91 53 -264 152 -385 222 -121 70 -371 214 -555 320 -1038 600
-975 570 -1220 575 -74 2 -148 1 -165 -2z m1005 -1876 c50 -21 198 -105 985
-560 143 -82 303 -174 355 -205 130 -74 156 -96 170 -138 16 -49 7 -110 -22
-141 -13 -14 -171 -114 -353 -222 -1152 -690 -1145 -686 -1231 -686 -64 1
-112 28 -141 81 l-23 39 0 858 c0 943 -3 902 61 949 69 52 119 58 199 25z" />
        <path
            d="M16735 4470 c-106 -15 -207 -91 -254 -190 -23 -48 -26 -68 -25 -150
0 -74 5 -105 21 -141 58 -128 178 -199 332 -199 207 0 345 122 358 316 17 235
-180 401 -432 364z" />
        <path
            d="M7600 4463 c-95 -9 -235 -39 -321 -68 -249 -84 -460 -277 -543 -496
-74 -197 -75 -429 -2 -623 51 -136 137 -248 250 -328 151 -106 290 -159 652
-248 367 -91 459 -126 561 -216 75 -65 107 -135 107 -234 0 -137 -64 -234
-202 -305 -157 -81 -456 -72 -632 21 -114 59 -189 142 -260 282 -23 46 -47 85
-54 88 -18 7 -547 -134 -563 -150 -13 -13 19 -132 57 -213 103 -217 268 -380
497 -488 156 -75 344 -114 573 -122 420 -14 746 98 972 335 157 165 228 346
228 585 0 246 -105 463 -298 617 -149 118 -359 204 -757 309 -235 62 -346 96
-394 123 -62 35 -120 87 -148 136 -24 40 -28 58 -28 122 0 92 32 167 99 228
88 81 185 112 351 112 267 -1 418 -82 517 -277 l43 -84 45 5 c55 7 478 111
487 119 9 9 -24 133 -56 208 -148 352 -550 573 -1031 567 -63 -1 -131 -3 -150
-5z" />
        <path
            d="M17710 3850 l0 -300 -175 0 -175 0 0 -220 0 -220 175 0 175 0 0 -585
c0 -701 3 -722 103 -882 72 -116 193 -200 352 -243 113 -31 358 -39 504 -16
58 10 108 19 113 22 4 3 8 104 8 225 l0 219 -172 0 c-147 0 -179 3 -213 19
-62 28 -95 71 -116 148 -17 62 -19 108 -19 580 l0 513 260 0 260 0 0 220 0
220 -260 0 -260 0 0 300 0 300 -280 0 -280 0 0 -300z" />
        <path
            d="M10125 3614 c-507 -55 -869 -383 -971 -879 -24 -118 -25 -404 -1
-511 50 -224 158 -418 314 -565 82 -77 149 -122 268 -182 164 -82 325 -117
540 -117 329 0 601 105 806 311 71 71 179 219 179 244 0 6 -99 51 -221 99
l-221 88 -82 -84 c-86 -89 -170 -141 -275 -172 -62 -18 -306 -23 -316 -6 -3 5
-16 10 -27 10 -12 0 -55 16 -96 36 -91 44 -192 141 -239 229 -27 53 -73 181
-73 206 0 5 338 9 805 9 l805 0 0 103 c0 430 -183 820 -478 1019 -163 110
-315 156 -536 162 -78 2 -159 2 -181 0z m326 -496 c127 -60 191 -132 243 -276
45 -125 101 -112 -474 -112 -456 0 -500 1 -500 16 0 9 20 59 45 111 34 73 58
108 107 156 115 113 210 148 389 144 108 -3 120 -5 190 -39z" />
        <path
            d="M12535 3610 c-392 -42 -709 -272 -865 -628 -111 -252 -132 -575 -54
-847 44 -158 139 -327 248 -444 150 -162 415 -293 650 -322 131 -16 363 -6
479 20 194 44 375 143 511 277 87 86 195 239 180 254 -10 10 -305 131 -392
161 l-54 18 -86 -87 c-137 -138 -243 -182 -439 -182 -122 0 -207 21 -300 76
-110 63 -206 196 -252 348 -12 37 -21 70 -21 72 0 2 360 4 800 4 l800 0 0 113
c-1 402 -153 765 -405 964 -219 173 -472 237 -800 203z m346 -492 c124 -58
216 -174 253 -318 7 -30 12 -58 9 -62 -2 -5 -224 -8 -494 -8 l-489 0 0 27 c0
52 77 191 143 256 115 114 210 149 388 143 107 -4 122 -7 190 -38z" />
        <path
            d="M15160 3595 c-196 -42 -371 -142 -463 -265 -26 -34 -47 -66 -47 -71
0 -5 -4 -9 -10 -9 -6 0 -10 57 -10 150 l0 150 -285 0 -285 0 0 -1070 0 -1070
285 2 284 3 4 645 c4 692 4 687 58 794 61 120 127 175 262 221 230 77 443 6
535 -177 61 -122 61 -120 64 -833 l3 -650 278 -3 278 -2 -3 797 c-3 792 -4
799 -26 870 -80 260 -259 440 -507 508 -83 23 -328 29 -415 10z" />
        <path
            d="M16528 3103 c-2 -247 -2 -728 0 -1070 l3 -623 274 0 275 0 0 1070 0
1070 -275 0 -274 0 -3 -447z" />
    </g>
</svg>